<svg width="22" height="22" viewBox="0 0 22 22" fill="none" xmlns="http://www.w3.org/2000/svg">
<g id="Union">
<path d="M10.6275 0.0939156C10.86 -0.0313052 11.14 -0.0313052 11.3725 0.0939156L21.5868 5.59392C21.8413 5.73096 22 5.99667 22 6.28572C22 6.57477 21.8413 6.84048 21.5868 6.97752L11.3725 12.4775C11.14 12.6027 10.86 12.6027 10.6275 12.4775L0.413207 6.97752C0.158707 6.84048 0 6.57477 0 6.28572C0 5.99667 0.158707 5.73096 0.413207 5.59392L10.6275 0.0939156Z" fill="#529DEE"/>
<path d="M1.84871 9.53523L9.88248 13.8611C10.5801 14.2368 11.4199 14.2368 12.1175 13.8611L20.1513 9.53523L21.5868 10.3082C21.8413 10.4452 22 10.7109 22 11C22 11.289 21.8413 11.5548 21.5868 11.6918L11.3725 17.1918C11.14 17.317 10.86 17.317 10.6275 17.1918L0.413207 11.6918C0.158707 11.5548 0 11.289 0 11C0 10.7109 0.158707 10.4452 0.413207 10.3082L1.84871 9.53523Z" fill="#529DEE"/>
<path d="M9.88248 18.5754L1.84871 14.2495L0.413207 15.0225C0.158707 15.1595 0 15.4252 0 15.7143C0 16.0033 0.158707 16.269 0.413207 16.4061L10.6275 21.9061C10.86 22.0313 11.14 22.0313 11.3725 21.9061L21.5868 16.4061C21.8413 16.269 22 16.0033 22 15.7143C22 15.4252 21.8413 15.1595 21.5868 15.0225L20.1513 14.2495L12.1175 18.5754C11.4199 18.9511 10.5801 18.9511 9.88248 18.5754Z" fill="#529DEE"/>
</g>
</svg>
