<svg width="4" height="12" viewBox="0 0 4 12" fill="none" xmlns="http://www.w3.org/2000/svg">
<path d="M0.870739 1.5831C0.870739 1.25497 0.986742 0.973248 1.21875 0.737926C1.45407 0.505918 1.7358 0.389915 2.06392 0.389915C2.38873 0.389915 2.66714 0.505918 2.89915 0.737926C3.13116 0.973248 3.24716 1.25497 3.24716 1.5831C3.24716 1.90128 3.13116 2.17969 2.89915 2.41832C2.66714 2.65696 2.38873 2.77628 2.06392 2.77628C1.84517 2.77628 1.64465 2.71993 1.46236 2.60724C1.28338 2.49787 1.1392 2.35369 1.02983 2.17472C0.923769 1.99574 0.870739 1.79853 0.870739 1.5831ZM0.870738 5.89302C0.870738 5.56489 0.986742 5.28317 1.21875 5.04785C1.45407 4.81584 1.7358 4.69984 2.06392 4.69984C2.38873 4.69984 2.66714 4.81584 2.89915 5.04785C3.13116 5.28317 3.24716 5.56489 3.24716 5.89302C3.24716 6.2112 3.13116 6.48961 2.89915 6.72825C2.66714 6.96688 2.38873 7.0862 2.06392 7.0862C1.84517 7.0862 1.64465 7.02986 1.46236 6.91717C1.28338 6.80779 1.1392 6.66361 1.02983 6.48464C0.923769 6.30566 0.870738 6.10845 0.870738 5.89302ZM0.870738 10.2029C0.870738 9.87481 0.986742 9.59309 1.21875 9.35777C1.45407 9.12576 1.7358 9.00976 2.06392 9.00976C2.38873 9.00976 2.66714 9.12576 2.89915 9.35777C3.13115 9.59309 3.24716 9.87482 3.24716 10.2029C3.24716 10.5211 3.13115 10.7995 2.89915 11.0382C2.66714 11.2768 2.38873 11.3961 2.06392 11.3961C1.84517 11.3961 1.64465 11.3398 1.46236 11.2271C1.28338 11.1177 1.1392 10.9735 1.02983 10.7946C0.923768 10.6156 0.870738 10.4184 0.870738 10.2029Z" fill="#B3B3B3"/>
</svg>
